<?xml version="1.0" encoding="UTF-8" standalone="no"?>
<!-- Created with Inkscape (http://www.inkscape.org/) -->
<svg id="svg2" xmlns:rdf="http://www.w3.org/1999/02/22-rdf-syntax-ns#" xmlns="http://www.w3.org/2000/svg" height="297mm" width="210mm" version="1.1" xmlns:cc="http://creativecommons.org/ns#" xmlns:dc="http://purl.org/dc/elements/1.1/" viewBox="0 0 744.09448819 1052.3622047">
 <metadata id="metadata7">
  <rdf:RDF>
   <cc:Work rdf:about="">
    <dc:format>image/svg+xml</dc:format>
    <dc:type rdf:resource="http://purl.org/dc/dcmitype/StillImage"/>
    <dc:title/>
   </cc:Work>
  </rdf:RDF>
 </metadata>
 <g id="layer1">
  <g id="g4213" transform="matrix(5.5242 0 0 5.4633 -501.35 -1140.7)">
   <path id="path4219" fill="#fcfcfc" d="m106.79 280.42v-44.844h45.335 45.335v44.844 44.844h-45.335-45.335v-44.844z"/>
   <path id="path4217" fill="#b5b5b5" d="m149.51 323.69c-3.3613-0.22235-6.0623-0.63149-8.8405-1.3391-15.924-4.056-28.281-16.649-31.883-32.492-0.66312-2.9164-0.91768-5.1048-0.99484-8.5524-0.10788-4.8196 0.38286-8.6838 1.6598-13.069 4.0745-13.994 15.276-25.227 29.357-29.441 6.3628-1.904 13.37-2.3604 19.906-1.2966 9.0681 1.4759 17.295 5.6642 23.842 12.138 6.794 6.7182 10.94 14.868 12.448 24.467 0.35836 2.2816 0.49756 7.7247 0.26142 10.222-1.181 12.489-7.6848 23.739-18.038 31.203-5.7977 4.1794-12.807 6.9185-20.024 7.8244-2.0664 0.25941-6.1581 0.43877-7.6932 0.33722zm1.5781-21.863c0.49-1.9347 0.95258-3.5786 1.028-3.6532 0.0911-0.0901 0.63249-0.0533 1.6161 0.10993 3.3053 0.54861 7.1506 0.40507 9.17-0.34229 1.0658-0.39447 2.6898-1.4975 3.3397-2.2685 2.1536-2.5546 3.3097-6.8005 2.5849-9.4933-0.46387-1.7233-1.9384-3.5192-3.7484-4.5654-0.4401-0.25438-0.80018-0.53948-0.80018-0.63356 0-0.0941 0.43655-0.33906 0.97012-0.54441 1.5071-0.58002 2.4568-1.2758 3.2323-2.3681 1.0597-1.4927 1.7707-4.1182 1.576-5.82-0.11378-0.99481-0.62257-2.4809-1.1119-3.2476-1.0938-1.7139-3.4701-3.3393-6.7605-4.624-0.58616-0.22887-1.1485-0.49592-1.2496-0.59344-0.15323-0.14776-0.0335-0.77422 0.71844-3.7576 0.49628-1.9691 0.85722-3.6194 0.80209-3.6672-0.1317-0.1143-4.0629-1.0745-4.1295-1.0087-0.0797 0.0788-3.0395 11.795-3.0428 12.044-0.002 0.14884 0.27809 0.32239 0.85569 0.53029 1.7668 0.63594 3.2175 1.474 4.0015 2.3116 0.95099 1.0161 1.2438 1.8206 1.1542 3.1715-0.13067 1.9706-1.2773 3.3076-3.2836 3.8287-0.70525 0.18317-1.1976 0.20948-2.5246 0.1349-0.9067-0.051-1.8914-0.10379-2.1881-0.11742l-0.53959-0.0248-0.50925 2.0061c-0.3468 1.3662-0.46182 2.0351-0.36058 2.097 0.0818 0.05 0.84046 0.3202 1.686 0.60048 4.4625 1.4792 6.5451 3.4958 6.3302 6.1296-0.17231 2.1116-1.4535 3.5527-3.663 4.1205-1.1 0.28266-4.439 0.20915-6.0345-0.13285-0.56114-0.12029-1.0626-0.1714-1.1144-0.1136-0.19857 0.22171-3.1876 12.425-3.0703 12.535 0.1861 0.17481 3.954 1.0669 4.0717 0.96406 0.0567-0.0496 0.50408-1.6731 0.99409-3.6078zm-3.0586-22.775c3.3801-13.41 6.1469-24.475 6.1485-24.589 0.002-0.1548-0.51206-0.33393-2.0235-0.70492-1.1145-0.27356-2.0687-0.45535-2.1206-0.40398-0.0519 0.0514-0.44132 1.4693-0.86549 3.151-0.42416 1.6817-0.83231 3.2869-0.90701 3.5672-0.10889 0.40861-0.20063 0.50959-0.46298 0.50959-0.17995 0-2.2229-0.46317-4.5399-1.0293-2.317-0.5661-4.294-0.99844-4.3933-0.96074-0.14618 0.0555-1.1698 3.7903-1.1698 4.2682 0 0.0686 0.35547 0.19952 0.78992 0.29103 1.9222 0.40488 3.394 0.94244 3.8314 1.3995 0.5852 0.61138 0.74545 0.96021 0.75211 1.6372 0.007 0.71002-5.0262 20.807-5.3481 21.354-0.61103 1.039-1.2905 1.1399-3.6776 0.54605-1.0686-0.26581-1.6064-0.34444-1.7029-0.24896-0.26198 0.25915-2.0812 4.5779-1.9687 4.6735 0.0614 0.0521 1.9043 0.54332 4.0955 1.0916 2.1912 0.54825 4.1849 1.0504 4.4304 1.1159 0.35156 0.0938 0.44647 0.19086 0.44647 0.45663 0 0.18563-0.37369 1.8123-0.83042 3.6149-0.45673 1.8025-0.8122 3.3695-0.78992 3.4821 0.0276 0.13945 0.65368 0.36716 1.9638 0.71422 1.0578 0.28022 1.9847 0.49511 2.0598 0.47754 0.0751-0.0176 2.9021-11.004 6.2822-24.414z"/>
   <path id="path4215" fill="#030303" d="m148.36 320.51c-8.2286-0.73054-15.569-3.5804-22.067-8.5676-1.6511-1.2672-4.5117-4.0117-5.9716-5.7293-4.4559-5.2424-7.447-11.352-8.7967-17.968-1.08-5.2937-1.08-10.891 0-16.184 3.2123-15.746 15.869-28.299 31.784-31.524 9.5514-1.9355 19.611-0.43578 27.975 4.1704 11.708 6.448 19.38 17.802 20.966 31.03 0.22505 1.8766 0.22573 7.034 0.001 8.833-1.1907 9.5385-5.1678 17.672-11.87 24.275-6.4147 6.32-14.716 10.328-23.748 11.467-2.0533 0.25891-6.4125 0.36318-8.2741 0.19791zm1.9316-14.843c0.0611-0.0934 0.51712-1.7598 1.0133-3.7031l0.90217-3.5332 0.54029 0.0115c0.29716 0.006 1.3749 0.12075 2.3949 0.25421 2.3457 0.30691 5.0399 0.23205 6.6628-0.18514 3.6864-0.94761 6.0707-3.5694 7.1513-7.864 0.97255-3.865-0.17548-6.8953-3.409-8.9982-0.50161-0.32622-0.88341-0.63891-0.84845-0.69486 0.035-0.056 0.29453-0.17368 0.57682-0.26161 0.91469-0.28492 2.3307-1.201 2.9648-1.9179 1.2669-1.4326 2.0513-3.6877 2.0492-5.8917-0.004-3.8466-2.5309-6.5784-8.1068-8.7631-0.62335-0.24423-1.1334-0.50058-1.1334-0.56967 0-0.0691 0.40211-1.7244 0.89358-3.6784 0.52049-2.0694 0.84266-3.6032 0.77161-3.6735-0.0671-0.0664-1.0719-0.35742-2.233-0.6468-1.6615-0.4141-2.147-0.49087-2.2798-0.36049-0.20959 0.20577-3.2283 11.975-3.1704 12.36 0.032 0.21311 0.26803 0.35526 0.98773 0.59487 2.389 0.79539 4.0287 1.9188 4.676 3.2039 0.49997 0.99246 0.49998 2.4406 0.00004 3.5031-0.41279 0.87724-0.63944 1.1493-1.3076 1.5694-1.1388 0.71602-3.1315 0.92957-5.5583 0.59568-0.58188-0.0801-1.1086-0.0953-1.1704-0.034-0.0618 0.0614-0.3579 1.0594-0.65796 2.2179-0.41466 1.6009-0.50706 2.1432-0.38508 2.26 0.0883 0.0845 0.7787 0.35236 1.5343 0.59524 2.641 0.84892 3.9571 1.5227 5.1333 2.6282 2.3142 2.175 1.6303 5.8663-1.3036 7.0364-0.74556 0.29732-0.99682 0.32194-3.2802 0.32136-1.8459-0.0004-2.7462-0.0607-3.551-0.23757-0.593-0.13032-1.126-0.20769-1.1845-0.17194-0.0585 0.0358-0.83368 2.9441-1.7227 6.463-1.1083 4.3868-1.5719 6.442-1.475 6.5379 0.10727 0.10611 3.7925 1.1214 4.3189 1.1899 0.0522 0.007 0.14494-0.0641 0.20606-0.15752zm-8.0724-2.528c0.072-0.27259 0.26295-1.046 0.42442-1.7186 0.16148-0.67267 2.8852-11.485 6.0527-24.028 3.1675-12.542 5.7591-22.923 5.7591-23.068 0-0.14474-0.024-0.26316-0.0533-0.26316s-1.0332-0.24659-2.231-0.54797c-1.8203-0.45805-2.2005-0.51694-2.3165-0.35884-0.0763 0.10402-0.53216 1.7571-1.0129 3.6735-0.80105 3.193-0.89869 3.4846-1.1677 3.4878-0.16146 0.002-2.2238-0.4706-4.5829-1.0501-3.1459-0.7727-4.33-1.0133-4.442-0.90254-0.24124 0.23863-1.2673 4.4367-1.1354 4.6453 0.0634 0.10022 0.94209 0.38798 1.9527 0.63947 2.4553 0.611 3.0612 1.024 3.3709 2.2975 0.0727 0.29882-0.58058 3.0904-2.5566 10.925-2.3105 9.1613-2.7004 10.573-3.011 10.904-0.56606 0.60268-0.92512 0.618-2.9518 0.1259-1.0061-0.24428-1.9154-0.41146-2.0206-0.3715-0.17507 0.0665-2.2952 4.6814-2.2952 4.996 0 0.20273 0.25115 0.2766 4.8426 1.4243 3.8552 0.96369 4.2246 1.0809 4.2278 1.3414 0.002 0.15701-0.38291 1.8281-0.85506 3.7135-0.63146 2.5216-0.81793 3.4681-0.70523 3.5796 0.19127 0.1892 4.1736 1.1929 4.406 1.1105 0.0936-0.0332 0.22911-0.28341 0.30107-0.556z"/>
  </g>
 </g>
</svg>
